<svg xmlns="http://www.w3.org/2000/svg" xmlns:xlink="http://www.w3.org/1999/xlink" xmlns:inkscape="http://www.inkscape.org/namespaces/inkscape" version="1.1" width="1296" height="460" viewBox="0 0 1296 460">
<defs>
<clipPath id="clip_1">
<path transform="matrix(1,0,0,-1,0,460)" d="M0 460H1296V0H0Z"/>
</clipPath>
</defs>
<g inkscape:groupmode="layer" inkscape:label="Layer 1">
<g clip-path="url(#clip_1)">
<path transform="matrix(1,0,0,-1,450.9503,419.8664)" d="M0 0C1.48 0 2.71 .44 3.69 1.32 4.67 2.199 5.161 3.384 5.161 4.876V6.31C5.161 7.802 4.67 8.996 3.69 9.895 2.71 10.793 1.48 11.243 0 11.243H-14.464V0ZM-1.02 17.381C.42 17.381 1.63 17.82 2.61 18.7 3.59 19.579 4.081 20.746 4.081 22.199V23.462C4.081 24.915 3.59 26.071 2.61 26.932 1.63 27.792 .42 28.222-1.02 28.222H-14.464V17.381ZM-21.246 34.475H.299C3.46 34.475 6.01 33.557 7.952 31.721 9.893 29.885 10.863 27.515 10.863 24.608V23.289C10.863 21.376 10.493 19.713 9.752 18.299 9.012 16.883 7.941 15.775 6.541 14.972 8.261 14.13 9.592 12.916 10.533 11.329 11.473 9.742 11.943 7.84 11.943 5.622V4.016C11.943 .917 10.902-1.577 8.822-3.47 6.741-5.363 4-6.31 .6-6.31H-21.246Z" fill="#2f2f37"/>
<path transform="matrix(1,0,0,-1,479.9379,412.123)" d="M0 0-16.504 26.731H-8.583L-.361 13.538 3.36 6.826 7.142 13.538 15.303 26.731H23.166L6.841 .058V-14.053H0Z" fill="#2f2f37"/>
<path transform="matrix(1,0,0,-1,0,460)" d="M35.568 275.96H60.371004V435.505H35.568Z" fill="#fc442b"/>
<path transform="matrix(1,0,0,-1,189.9295,123.9137)" d="M0 0-70.249 99.419H-93.076V-60.126H-68.273V55.594L-2.31-39.292-.365-39.317 71.541 60.21V-60.126H94.921V99.419H68.588Z" fill="#fc442b"/>
<path transform="matrix(1,0,0,-1,457.4319,94.14349)" d="M0 0C0-7.099-1.519-9.824-3.54-11.995-5.563-14.167-8.896-15.607-12.579-15.607H-113.405V43.729H-12.579C-8.896 43.729-5.563 42.293-3.54 40.121-1.519 37.95 0 35.225 0 28.126ZM-9.479 69.649H-138.211V-89.896H-113.405V-41.527H-9.479C-1.577-41.527 6.803-38.694 13.599-31.392 20.396-24.091 24.806-12.141 24.806 1.57V26.552C24.806 40.258 20.396 52.209 13.599 59.514 6.803 66.815-1.577 69.649-9.479 69.649" fill="#fc442b"/>
<path transform="matrix(1,0,0,-1,654.9651,142.5127)" d="M0 0C0-7.1-1.517-9.824-3.54-11.995-5.561-14.167-8.893-15.607-12.576-15.607H-106.44C-110.124-15.607-113.457-14.171-115.481-11.995-117.5-9.824-119.018-7.1-119.018 0V118.018H-143.817V1.57C-143.817-12.137-139.41-24.087-132.613-31.393-125.82-38.694-117.433-41.527-109.538-41.527H-9.477C-1.581-41.527 6.8-38.694 13.599-31.393 20.395-24.091 24.802-12.141 24.802 1.57V118.018H0Z" fill="#fc442b"/>
<path transform="matrix(1,0,0,-1,738.3425,24.494599)" d="M0 0H-24.689V-159.545H138.624V-133.625H0Z" fill="#fc442b"/>
<path transform="matrix(1,0,0,-1,1034.0103,89.73859)" d="M0 0H-95.173C-98.857 0-102.189 1.439-104.211 3.611-106.232 5.782-107.749 8.507-107.749 15.605V23.716C-107.749 30.815-106.232 33.539-104.211 35.711-102.189 37.883-98.857 39.322-95.173 39.322H-6.921C-3.236 39.322 .096 37.883 2.119 35.711 3.995 33.694 5.436 31.194 5.63 25.158H30.385C29.791 37.595 25.551 48.344 19.256 55.106 12.459 62.408 4.077 65.242-3.82 65.242H-98.274C-106.172 65.242-114.553 62.409-121.35 55.106-128.147 47.804-132.552 35.853-132.552 22.145V16.028L-132.541 16.026C-132.302 2.801-127.956-8.687-121.35-15.784-114.553-23.086-106.172-25.92-98.274-25.92H-3.1C.583-25.92 3.916-27.359 5.938-29.53 7.66-31.381 9.013-33.644 9.376-38.661V-52.778C9.376-59.877 7.859-62.601 5.838-64.773 3.815-66.945 .483-68.384-3.2-68.384H-95.173C-98.857-68.384-102.189-66.945-104.211-64.773-106.233-62.601-107.749-59.877-107.749-52.778-107.749-52.777-107.752-49.618-107.755-46.458H-132.46L-132.554-51.207C-132.554-64.915-128.147-76.865-121.35-84.168-114.553-91.47-106.172-94.303-98.274-94.303H-.099C7.798-94.303 16.18-91.47 22.977-84.168 29.774-76.865 34.011-64.913 34.181-51.207L34.28-43.096C34.28-29.389 29.873-17.438 23.077-10.136 16.28-2.833 7.898 0 0 0" fill="#fc442b"/>
<path transform="matrix(1,0,0,-1,1235.0023,142.5127)" d="M0 0C0-7.1-1.424-9.824-3.322-11.995-5.219-14.167-8.346-15.607-11.803-15.607H-101.671L-71.606 27.106-59.392 18.163C-58.153 17.257-56.606 16.886-55.092 17.139-53.579 17.389-52.232 18.238-51.352 19.494L-20.262 63.907-11.356 57.772V85.84L-38.518 76.484-29.654 70.377-57.354 30.804-69.556 39.738C-70.792 40.642-72.337 41.009-73.849 40.764-75.359 40.515-76.706 39.671-77.586 38.419L-114.165-13.549C-114.823-13.09-115.415-12.571-115.917-11.995-117.816-9.824-119.24-7.1-119.24 0V76.491C-119.24 83.591-117.816 86.315-115.917 88.486-114.021 90.658-110.893 92.098-107.436 92.098H-11.803C-8.346 92.098-5.219 90.662-3.322 88.49-1.424 86.319 0 83.594 0 76.495ZM12.766 107.883C6.387 115.185-1.48 118.018-8.891 118.018H-110.346C-117.756 118.018-125.622 115.185-132.003 107.883-138.381 100.582-142.518 88.632-142.518 74.921V1.57C-142.518-12.137-138.381-24.087-132.003-31.393-125.622-38.694-117.756-41.527-110.346-41.527H-8.891C-1.48-41.527 6.387-38.694 12.766-31.393 19.146-24.091 23.281-12.141 23.281 1.57V74.921C23.281 88.628 19.146 100.578 12.766 107.883" fill="#fc442b"/>
<path transform="matrix(1,0,0,-1,0,460)" d="M526.468 69.8H539.63906V26.425004H526.468ZM524.624 82.181C524.624 87.009 528.225 90.609 533.054 90.609 537.882 90.609 541.482 87.009 541.482 82.181 541.482 77.35 537.882 73.751 533.054 73.751 528.225 73.751 524.624 77.35 524.624 82.181" fill="#fc442b"/>
<path transform="matrix(1,0,0,-1,549.6486,411.0971)" d="M0 0C0 14.575 8.604 22.039 21.424 22.039 34.242 22.039 42.847 14.663 42.847 0V-22.477H29.677V0C29.677 6.848 26.34 9.747 21.424 9.747 16.507 9.747 13.171 6.848 13.171 0V-22.477H0Z"/>
<path transform="matrix(1,0,0,-1,601.0997,416.4533)" d="M0 0V41.618H13.171V26.254H33.716V14.4H13.171V0C13.171-4.566 15.277-5.97 18.175-5.97 21.073-5.97 23.179-4.566 23.179 0V1.317H36.35V0C36.35-12.38 28.975-18.263 18.175-18.263 7.375-18.263 0-12.38 0 0"/>
<path transform="matrix(1,0,0,-1,674.9418,407.2344)" d="M0 0C-1.494 4.478-5.005 6.41-9.571 6.41-14.137 6.41-17.649 4.39-18.965 0ZM-32.927-4.653C-32.927 8.517-23.268 18.176-9.571 18.176 4.126 18.176 13.522 8.517 13.522-4.653V-8.341H-19.23C-18.176-13.434-14.312-15.717-9.571-15.717-5.796-15.717-2.986-14.926-1.318-12.555H12.291C9.482-21.511 1.229-27.481-9.571-27.481-23.268-27.481-32.927-17.823-32.927-4.653"/>
<path transform="matrix(1,0,0,-1,726.919,411.8877)" d="M0 0C0 6.235-4.039 10.537-10.01 10.537-15.98 10.537-20.019 6.235-20.019 0-20.019-6.233-15.98-9.833-10.01-9.833-4.039-9.833 0-6.233 0 0M-32.136-25.902H-18.79C-17.473-28.623-14.312-29.94-9.922-29.94-3.512-29.94 0-27.218 0-18.789V-16.243C-2.721-20.107-7.112-22.125-12.555-22.125-21.774-22.125-33.365-16.067-33.365 0-33.365 13.171-23.706 22.83-10.01 22.83 3.687 22.83 13.171 13.786 13.171-.438V-18.35C13.171-34.945 2.721-41.354-9.834-41.354-20.898-41.354-29.501-36.525-32.136-25.902"/>
<path transform="matrix(1,0,0,-1,748.6921,408.90193)" d="M0 0C0 13.521 7.902 19.844 19.492 19.844 31.081 19.844 38.896 13.609 38.985-.088V-.351H25.814V0C25.814 5.795 23.179 7.551 19.492 7.551 15.804 7.551 13.171 5.795 13.171 0V-24.673H0Z"/>
<path transform="matrix(1,0,0,-1,824.6402,411.8877)" d="M0 0C0 6.235-4.039 10.537-10.01 10.537-15.98 10.537-20.019 6.235-20.019 0-20.019-6.233-15.98-10.536-10.01-10.536-4.039-10.536 0-6.233 0 0M-33.365 0C-33.365 13.171-23.706 22.83-10.01 22.83 3.687 22.83 13.346 13.171 13.346 0 13.346-13.169 3.687-22.828-10.01-22.828-23.706-22.828-33.365-13.169-33.365 0"/>
<path transform="matrix(1,0,0,-1,24.2531,295.52259)" d="M0 0H93.043V11.403H11.403V40.577H79.577V51.98H11.403V81.155H93.043V92.558H0Z" fill="#2f2f37"/>
<path transform="matrix(1,0,0,-1,491.5343,295.52259)" d="M0 0H93.043V11.403H11.403V40.577H79.578V51.98H11.403V81.155H93.043V92.558H0Z" fill="#2f2f37"/>
<path transform="matrix(1,0,0,-1,837.9891,295.52259)" d="M0 0H93.044V11.403H11.403V40.577H79.578V51.98H11.403V81.155H93.044V92.558H0Z" fill="#2f2f37"/>
<path transform="matrix(1,0,0,-1,190.7594,262.7196)" d="M0 0-44.27 61.938H-53.326V-32.561H-41.923V36.936L.187-19.268 40.201 36.364V-32.561H51.604V61.938H42.32Z" fill="#2f2f37"/>
<path transform="matrix(1,0,0,-1,331.1484,259.0087)" d="M0 0H-53.483V46.824H-1.733C.252 46.791 17.647 45.765 17.361 20.565L17.365 20.279C17.433 18.292 17.519 .877 0 0M18.94 49.243C10.159 58.125-1.207 58.227-1.686 58.227H-64.886V-36.272H-53.483V-11.403H.135L.394-11.397C23.771-10.335 29.167 9.891 28.765 20.587 28.876 32.895 25.572 42.537 18.94 49.243" fill="#2f2f37"/>
<path transform="matrix(1,0,0,-1,390.8454,214.3671)" d="M0 0H50.343L50.614 .007C50.704 .007 60.199 .344 66.022-5.522 69.583-9.11 71.207-14.545 70.851-21.671L70.838-21.969 70.851-22.244C70.856-22.349 71.277-32.868 65.574-38.754 62.847-41.568 59.043-42.877 53.982-42.822H0ZM60.389-53.693C65.721-52.712 70.234-50.359 73.825-46.624 82.319-37.795 82.321-24.345 82.252-21.987 82.721-11.584 79.953-3.311 74.022 2.604 65.037 11.566 52.026 11.474 50.234 11.403H-11.403V-80.913H0V-54.225H44.708L72.594-81.786C73.704-82.884 75.153-83.433 76.601-83.433 78.071-83.433 79.541-82.868 80.656-81.739 82.869-79.499 82.848-75.89 80.608-73.676Z" fill="#2f2f37"/>
<path transform="matrix(1,0,0,-1,1188.1967,214.3671)" d="M0 0H50.343L50.615 .007C50.713 .007 60.201 .344 66.022-5.522 69.583-9.11 71.207-14.545 70.851-21.671L70.838-21.969 70.851-22.244C70.856-22.349 71.277-32.868 65.574-38.754 62.847-41.568 59.069-42.877 53.982-42.822H0ZM80.608-73.676 60.39-53.693C65.721-52.712 70.234-50.359 73.825-46.624 82.319-37.795 82.321-24.345 82.252-21.987 82.721-11.584 79.953-3.311 74.022 2.604 65.037 11.566 52.034 11.474 50.234 11.403H-11.403V-80.913H0V-54.225H44.708L72.594-81.786C73.704-82.884 75.153-83.433 76.601-83.433 78.071-83.433 79.541-82.868 80.656-81.739 82.869-79.499 82.848-75.89 80.608-73.676" fill="#2f2f37"/>
<path transform="matrix(1,0,0,-1,689.1412,278.94709)" d="M0 0-73.179 78.166H-83.338V-16.333H-71.935V58.315L.123-16.575H11.403V73.92H0Z" fill="#2f2f37"/>
<path transform="matrix(1,0,0,-1,804.5347,232.8384)" d="M0 0-.029-35.147C-.029-41.189-1.682-45.809-4.941-48.88-10.732-54.335-20.072-53.844-20.136-53.842L-71.238-53.829V20.654H-19.272C-12.578 20.175-7.562 18.038-4.364 14.298 .685 8.396 .004 .051 0 0M-18.697 32.044-82.641 32.057V-65.231H-20.683C-20.444-65.243-20.047-65.257-19.518-65.257-15.703-65.257-5.026-64.555 2.787-57.265 8.485-51.949 11.374-44.508 11.374-35.147V-.798C11.525 1.378 11.911 12.706 4.406 21.588-.892 27.857-8.665 31.376-18.697 32.044" fill="#2f2f37"/>
<path transform="matrix(1,0,0,-1,1031.2587,232.8384)" d="M0 0-.029-35.147C-.029-41.189-1.682-45.809-4.941-48.881-10.732-54.335-20.068-53.844-20.135-53.842L-71.236-53.829V20.654H-19.27C-12.576 20.175-7.562 18.038-4.364 14.3 .685 8.396 .004 .051 0 0M-18.695 32.044-82.639 32.057V-65.231H-20.682C-20.442-65.243-20.046-65.257-19.517-65.257-15.701-65.257-5.026-64.555 2.787-57.265 8.485-51.949 11.374-44.508 11.374-35.147V-.798C11.525 1.377 11.911 12.706 4.406 21.588-.892 27.857-8.664 31.376-18.695 32.044" fill="#2f2f37"/>
<path transform="matrix(1,0,0,-1,1128.4635,286.3036)" d="M0 0H-36.064C-36.245-.003-36.423-.004-36.602-.004-53.313-.004-54.422 11.957-54.472 14.315V59.22C-53.322 73.163-39.228 72.887-36.435 72.681L-4.411 72.663-4.083 72.673C1.997 73.019 6.701 71.69 9.908 68.71 15.036 63.947 15.217 56.189 15.218 56.166V16.862L15.225 16.573C15.97 1.931 2.904 .2 0 0M26.621 56.184C26.62 56.695 26.481 68.775 17.784 76.957 12.238 82.176 4.709 84.564-4.57 84.066H-35.8C-37.783 84.177-49.287 84.479-57.562 77.383-62.528 73.124-65.321 67.228-65.859 59.857L-65.875 14.301C-65.872 13.235-65.634 3.671-58.156-3.678-52.935-8.81-45.691-11.409-36.695-11.409-36.457-11.409-36.218-11.407-35.978-11.403H.177L.462-11.396C1.157-11.361 7.427-10.955 13.726-7.455 22.552-2.551 27.128 6.13 26.621 17.001Z" fill="#2f2f37"/>
</g>
</g>
</svg>
